# xmcd
#
# Track frame offsets:
# 150
# 17635
# 37271
# 60722
# 79474
# 98541
# 114224
# 134605
# 153984
#
# Disc length: 2297 seconds
#
#
# Revision: 0
# Processed by: cddbd v1.5.1PL2 Copyright (c) Steve Scherf et al.
# Submitted via: FreeRIP 2.945 
#
DISCID=7008f709
DTITLE=Gian and Giovani - Ao Vivo - 
DYEAR=1999
DGENRE=
TTITLE0=Escravo do Amor
TTITLE1=Nem Dormindo Consigo te Esquecer
TTITLE2=Codinome Beija-Flor
TTITLE3=Não vivo sem Você
TTITLE4=Meu Brasil
TTITLE5=Um, Dois, Três
TTITLE6=Planeta Sonho
TTITLE7=O Grande Amor da Minha Vida
TTITLE8=Que Raio de Amor é Esse
EXTD=
EXTT0=
EXTT1=
EXTT2=
EXTT3=
EXTT4=
EXTT5=
EXTT6=
EXTT7=
EXTT8=
PLAYORDER=
